<?xml version="1.0" standalone="no"?>
<!DOCTYPE svg PUBLIC "-//W3C//DTD SVG 20010904//EN"
 "http://www.w3.org/TR/2001/REC-SVG-20010904/DTD/svg10.dtd">
<svg version="1.0" xmlns="http://www.w3.org/2000/svg"
 width="1536.000000pt" height="831.000000pt" viewBox="0 0 1536.000000 831.000000"
 preserveAspectRatio="xMidYMid meet">
<metadata>
Created by potrace 1.16, written by Peter Selinger 2001-2019
</metadata>
<g transform="translate(0.000000,831.000000) scale(0.100000,-0.100000)"
fill="#000000" stroke="none">
<path d="M13704 8289 c-15 -17 -26 -20 -57 -15 -22 4 -44 2 -51 -3 -7 -6 -27
-5 -54 2 -43 11 -44 11 -70 -21 -15 -18 -32 -32 -39 -32 -7 0 -16 -7 -20 -15
-6 -9 -32 -18 -68 -23 -60 -7 -60 -8 -59 -40 2 -25 -2 -32 -17 -32 -10 0 -19
-6 -19 -13 0 -6 -13 -18 -30 -25 -25 -11 -30 -19 -30 -48 0 -54 -16 -74 -86
-105 -35 -16 -64 -32 -64 -35 0 -3 9 -17 20 -31 24 -30 27 -83 6 -83 -26 0
-28 -20 -3 -29 25 -10 41 -36 32 -52 -3 -4 -22 -11 -43 -15 -20 -4 -48 -11
-61 -16 l-24 -9 23 -24 23 -24 -29 -11 c-16 -6 -35 -13 -43 -16 -11 -3 -12 -7
-3 -16 7 -7 12 -24 12 -39 0 -22 6 -29 28 -34 42 -9 69 -32 54 -47 -20 -20
-14 -35 18 -42 l30 -6 -4 -67 c-7 -106 -133 -460 -219 -615 -123 -223 -294
-354 -537 -414 -139 -34 -249 -35 -465 -5 -137 20 -214 24 -400 25 -308 1
-829 -15 -813 -25 7 -5 -33 -9 -92 -9 -140 -1 -324 -15 -615 -49 -180 -21
-261 -33 -280 -41 -11 -5 -33 -11 -50 -13 -16 -3 -75 -21 -130 -42 -55 -20
-158 -56 -230 -80 -71 -24 -229 -82 -350 -130 -421 -167 -581 -209 -880 -235
-66 -5 -430 -10 -810 -10 -676 0 -1445 -19 -1642 -40 -51 -6 -125 -10 -165
-10 -79 0 -565 -56 -823 -95 -252 -38 -614 -103 -860 -155 -49 -11 -118 -24
-153 -30 -35 -6 -131 -27 -215 -46 -84 -19 -174 -40 -202 -46 -430 -92 -1680
-493 -2112 -677 -106 -45 -257 -107 -335 -137 -513 -200 -698 -299 -698 -374
0 -15 8 -38 18 -50 28 -35 83 -35 200 -1 l104 30 37 -40 c32 -33 44 -39 78
-39 38 0 150 30 244 66 l46 17 39 -26 c21 -15 52 -27 69 -27 40 0 207 56 325
109 l92 42 37 -25 c49 -34 79 -33 212 11 l112 36 47 -26 47 -27 73 21 c40 11
109 34 153 51 l80 31 42 -23 c39 -21 45 -22 96 -10 30 7 95 28 145 46 51 19
95 34 98 34 4 0 24 -11 45 -26 l39 -25 78 20 c44 11 99 27 122 35 39 14 47 14
72 1 16 -8 39 -15 50 -15 30 0 119 26 213 62 78 30 80 30 116 13 37 -16 41
-16 112 5 41 12 95 31 121 42 l47 20 34 -21 c19 -12 45 -21 59 -21 34 0 150
41 225 79 34 17 67 31 73 31 7 0 25 -14 42 -30 18 -18 40 -30 56 -30 32 0 166
50 234 87 l48 26 38 -43 38 -43 81 28 82 28 31 -27 c17 -14 36 -26 41 -26 4 0
37 11 72 24 l63 24 29 -24 c36 -29 68 -30 139 -5 30 10 58 15 63 11 4 -5 21
-15 37 -24 32 -16 69 -8 209 47 78 30 79 30 109 12 37 -21 77 -22 136 -1 42
15 44 15 81 -10 43 -28 43 -28 180 14 79 24 85 24 111 9 39 -24 69 -21 173 14
89 29 92 30 128 13 36 -16 40 -15 106 6 37 12 101 36 141 52 68 28 74 29 97
14 13 -9 37 -16 53 -16 30 0 139 33 182 55 22 12 28 10 55 -11 40 -32 73 -30
180 12 114 45 132 49 150 34 11 -9 27 -9 69 0 35 7 62 8 73 2 22 -12 141 -25
208 -24 28 1 79 10 113 21 65 20 71 18 47 -13 -23 -31 -19 -89 8 -114 31 -29
73 -28 148 3 l61 24 -7 -22 c-4 -12 -9 -39 -12 -60 -4 -32 -1 -41 24 -64 l29
-26 -23 -45 c-13 -25 -23 -56 -23 -68 0 -19 -9 -25 -54 -38 -43 -13 -64 -27
-100 -67 -27 -30 -48 -64 -52 -85 -5 -26 -17 -42 -48 -63 -92 -64 -153 -156
-139 -210 3 -13 -8 -33 -34 -63 -51 -56 -83 -102 -83 -120 0 -8 -20 -43 -45
-78 -52 -74 -66 -123 -41 -148 14 -15 14 -19 -10 -59 -24 -41 -41 -141 -42
-248 -1 -120 -23 -178 -75 -201 -50 -23 -101 -65 -139 -118 -21 -30 -28 -50
-28 -86 0 -45 -2 -48 -40 -65 -57 -26 -92 -54 -139 -110 -37 -45 -41 -55 -41
-105 l0 -55 -78 -30 c-58 -22 -91 -42 -134 -83 -85 -81 -108 -142 -68 -182 11
-11 20 -22 20 -25 0 -2 -22 -16 -49 -29 -49 -26 -121 -98 -148 -150 -10 -19
-13 -42 -9 -67 6 -36 3 -41 -44 -85 -91 -85 -131 -169 -98 -202 7 -7 42 -12
85 -12 40 0 73 -4 73 -8 0 -4 -21 -28 -46 -52 -74 -72 -106 -124 -102 -168 l3
-37 83 2 c45 1 82 -1 82 -4 0 -4 -13 -27 -30 -53 -38 -60 -47 -102 -25 -120
14 -11 32 -11 123 2 59 9 108 15 110 13 2 -2 -12 -28 -31 -57 -60 -94 -61
-138 -4 -138 36 0 208 40 276 64 24 9 45 16 47 16 2 0 -14 -34 -36 -75 -22
-42 -40 -82 -40 -89 0 -47 71 -36 294 45 76 27 141 48 143 45 2 -2 -7 -27 -21
-55 -31 -60 -34 -91 -8 -91 23 0 108 29 186 64 33 14 61 24 63 22 2 -2 -9 -31
-26 -65 -34 -66 -39 -101 -16 -101 8 0 48 13 88 29 l74 29 131 -126 c82 -79
133 -137 137 -154 4 -15 3 -52 -2 -82 -5 -30 -7 -78 -3 -108 8 -55 0 -91 -27
-120 -26 -29 0 -20 41 14 48 40 72 32 118 -37 26 -39 48 -57 102 -85 l69 -35
597 -3 597 -3 18 40 c40 89 177 97 273 16 18 -15 35 -25 39 -22 10 10 -57 106
-99 142 l-40 34 62 70 c84 95 90 96 90 13 0 -68 14 -112 39 -120 7 -2 76 60
160 147 82 83 151 151 154 151 4 0 7 -21 7 -47 0 -61 9 -93 25 -93 15 0 86 73
147 150 l43 55 7 -82 c4 -46 10 -88 13 -94 10 -16 59 33 115 116 59 87 64 92
121 100 56 8 60 4 119 -134 56 -130 60 -137 92 -173 32 -36 37 -85 13 -132
-22 -42 -19 -43 20 -6 25 25 41 54 56 102 11 37 24 68 28 68 12 0 59 -74 67
-104 9 -38 50 -73 110 -96 52 -19 80 -20 650 -22 l596 -3 32 36 c41 48 65 59
123 59 50 0 75 -12 126 -58 25 -24 27 -25 27 -6 0 31 -58 113 -99 139 -58 38
-104 44 -326 43 -228 -1 -439 22 -571 63 -97 30 -221 84 -260 114 -41 31 -43
57 -14 154 l20 66 128 100 c122 96 491 452 563 543 l34 44 0 -104 c0 -85 4
-111 21 -148 44 -93 49 -91 50 22 1 81 6 115 23 161 21 54 27 60 76 82 58 25
57 24 84 145 16 70 54 176 109 301 27 63 52 122 56 132 4 13 12 16 26 12 19
-6 19 -5 3 22 -16 28 -15 31 30 118 26 50 69 119 97 155 38 50 58 90 86 175
37 114 73 191 130 285 19 32 44 95 58 151 28 106 42 145 64 172 59 70 34 -90
-53 -341 l-47 -134 12 -86 c26 -198 58 -266 149 -315 29 -16 54 -27 56 -25 2
2 -14 29 -35 60 -34 52 -60 127 -60 178 0 11 13 34 29 52 27 32 29 38 33 153
4 87 14 155 36 245 47 194 100 360 133 419 17 29 59 140 93 247 l63 193 -8 90
c-22 241 -135 404 -399 574 -27 17 -36 32 -42 62 -11 61 -9 198 3 255 9 44 14
50 36 50 35 0 109 44 173 104 129 119 142 131 131 109 -19 -37 -13 -37 34 1
25 21 45 34 45 29 0 -4 36 28 80 72 44 44 80 73 80 66 0 -11 6 -9 23 6 12 11
27 19 34 16 6 -2 14 5 18 16 3 11 12 18 20 15 7 -3 16 3 19 14 4 11 17 27 30
35 13 9 29 29 36 46 7 17 17 31 22 31 5 0 18 20 29 45 11 25 22 45 24 45 2 0
2 -17 -1 -37 l-4 -38 17 45 c15 40 18 42 21 20 3 -20 12 -8 48 65 36 76 43 85
45 60 1 -25 3 -21 13 20 12 46 14 48 23 26 8 -20 11 -14 22 48 7 39 17 69 21
66 5 -3 11 9 15 27 4 18 9 42 13 53 5 17 7 16 11 -10 5 -23 11 -7 31 78 24
104 34 126 42 90 3 -10 10 16 17 57 6 41 18 93 26 115 7 22 17 67 21 100 6 47
9 55 14 35 l7 -25 6 25 c4 14 11 68 18 120 6 52 18 104 25 115 8 11 14 28 14
38 0 9 7 20 15 23 8 4 15 12 15 19 0 7 13 39 29 71 17 32 37 85 46 117 9 32
25 65 35 75 11 9 20 22 20 28 0 6 10 24 21 39 21 26 24 27 93 20 116 -11 186
-31 419 -119 263 -99 393 -138 465 -140 47 -1 57 2 78 27 28 33 31 65 7 74
-10 3 -24 11 -31 17 -8 5 -24 11 -35 13 -12 2 -39 10 -59 18 -21 8 -38 12 -38
9 0 -4 -7 -1 -15 6 -8 7 -21 10 -29 7 -8 -3 -17 -3 -21 1 -4 4 -10 7 -13 8
-86 7 -170 45 -362 161 -63 38 -143 85 -177 103 -65 35 -74 51 -49 85 11 16
22 17 78 12 80 -7 269 -45 283 -57 5 -4 27 -11 48 -15 20 -4 37 -12 37 -17 0
-6 7 -8 15 -5 8 4 17 2 21 -4 3 -5 14 -7 25 -4 10 4 19 2 19 -3 0 -6 17 -9 38
-7 20 1 40 -2 44 -8 4 -7 12 -6 23 3 11 9 19 10 23 3 7 -10 95 -11 122 0 34
13 59 14 63 3 3 -8 10 -8 26 2 18 10 21 10 21 -5 0 -13 3 -14 12 -5 15 15 31
16 22 1 -4 -7 -2 -9 7 -5 8 3 22 9 33 12 15 6 17 14 12 51 -12 93 -88 182
-238 280 -83 55 -328 180 -435 223 -26 10 -33 18 -33 40 0 25 -16 41 -43 44
-5 1 -15 12 -22 26 -8 14 -15 21 -15 15 0 -5 -7 -1 -15 9 -8 11 -15 16 -15 12
0 -4 -13 2 -30 14 -16 12 -30 17 -30 12 0 -13 -47 -2 -61 14 -6 8 -18 14 -25
14 -8 0 -23 14 -33 31 -12 20 -21 26 -24 17 -3 -9 -6 -8 -11 5 -18 52 -19 53
-26 22 l-6 -30 -22 35 c-12 19 -22 42 -22 51 0 9 -10 29 -21 44 -12 15 -25 41
-29 58 -4 18 -12 31 -18 29 -7 -1 -12 3 -12 9 0 8 -5 8 -15 -1 -13 -11 -15 -7
-15 29 0 23 -4 40 -9 36 -5 -3 -15 11 -21 30 -11 34 -30 48 -30 23 -1 -8 -6
-6 -14 5 -14 18 -14 18 -18 0 -3 -14 -9 -8 -28 23 -17 30 -29 40 -42 36 -10
-2 -18 -11 -18 -18 0 -29 -19 -12 -33 29 l-14 42 -7 -37 c-8 -45 -17 -47 -45
-12 -14 18 -26 24 -37 20 -10 -4 -33 4 -55 19 -21 14 -40 25 -42 25 -2 0 -12
-9 -23 -21z m-4920 -5799 c14 -22 26 -45 26 -52 1 -7 7 -31 15 -53 14 -38 14
-42 -15 -100 -16 -33 -36 -94 -44 -135 -9 -49 -20 -78 -31 -85 -62 -37 -98
-71 -120 -115 -34 -67 -33 -102 6 -134 17 -14 35 -26 40 -26 18 0 9 -21 -13
-29 -35 -13 -74 -60 -101 -119 -28 -59 -26 -79 9 -118 l25 -26 -32 -36 c-37
-41 -68 -107 -69 -140 0 -26 50 -82 74 -82 17 0 91 -48 90 -58 0 -4 -15 -37
-33 -74 -44 -90 -55 -203 -22 -232 26 -23 26 -32 2 -104 -11 -31 -22 -82 -26
-113 -6 -50 -4 -58 18 -85 l25 -29 67 33 c37 18 70 31 72 28 3 -3 -2 -27 -11
-53 -23 -64 -32 -183 -17 -211 16 -30 38 -28 101 13 30 19 58 35 63 35 4 0 7
-37 7 -82 l0 -81 -102 6 c-161 11 -344 43 -457 81 -150 51 -156 60 -91 133 47
54 60 94 60 186 0 49 7 84 25 129 37 92 34 117 -21 167 -45 41 -46 43 -42 91
6 62 18 76 92 111 48 23 56 30 41 35 -29 12 -146 -23 -185 -55 -51 -41 -61
-83 -69 -283 -6 -155 -9 -180 -26 -199 -41 -45 -132 -63 -185 -36 -14 7 -35
30 -47 52 -39 73 -109 345 -137 533 -15 99 -14 108 10 275 14 95 33 190 43
213 46 103 291 337 691 658 140 113 258 205 261 205 4 1 18 -17 33 -39z m1916
-1690 c0 -37 5 -55 20 -70 22 -22 26 -21 122 25 21 10 40 16 43 13 4 -3 0 -22
-9 -41 -20 -48 -60 -67 -140 -67 -60 0 -68 3 -115 40 -28 22 -51 48 -51 58 0
16 100 92 121 92 5 0 9 -22 9 -50z m-1575 -514 c-9 -45 -31 -58 -92 -54 l-47
3 64 51 c36 29 69 48 73 44 5 -4 5 -24 2 -44z"/>
</g>
</svg>
