<?xml version="1.0" standalone="no"?>
<!DOCTYPE svg PUBLIC "-//W3C//DTD SVG 20010904//EN"
 "http://www.w3.org/TR/2001/REC-SVG-20010904/DTD/svg10.dtd">
<svg version="1.0" xmlns="http://www.w3.org/2000/svg"
 width="1536.000000pt" height="942.000000pt" viewBox="0 0 1536.000000 942.000000"
 preserveAspectRatio="xMidYMid meet">
<metadata>
Created by potrace 1.16, written by Peter Selinger 2001-2019
</metadata>
<g transform="translate(0.000000,942.000000) scale(0.100000,-0.100000)"
fill="#000000" stroke="none">
<path d="M14750 9409 c-202 -23 -529 -102 -705 -170 -238 -92 -434 -204 -960
-549 -487 -320 -714 -455 -1030 -612 -393 -197 -759 -337 -1105 -423 -589
-147 -940 -156 -2390 -61 -624 41 -854 49 -1300 43 -435 -6 -591 -16 -909 -62
-1406 -204 -2584 -898 -3604 -2124 -15 -18 -29 -32 -31 -30 -2 2 -13 23 -25
47 -13 25 -42 57 -72 78 -27 20 -54 45 -60 55 -15 29 -26 23 -55 -26 -52 -90
-77 -199 -99 -437 l-7 -67 -71 62 c-40 34 -86 72 -104 85 l-31 22 -19 -47
c-36 -95 -18 -336 40 -525 8 -27 12 -48 9 -48 -4 0 -29 7 -56 15 -27 8 -54 15
-61 15 -7 0 -17 -33 -24 -83 -12 -76 -11 -87 8 -136 11 -30 32 -71 46 -93 26
-39 26 -41 15 -127 -55 -430 -265 -796 -599 -1047 -117 -87 -194 -126 -341
-170 -240 -71 -284 -101 -430 -294 -50 -65 -145 -171 -222 -245 -192 -187
-197 -196 -259 -467 -108 -481 -201 -802 -270 -941 -31 -60 -32 -65 -26 -157
17 -259 108 -344 339 -311 240 35 359 78 753 276 307 154 438 205 529 205 47
0 62 6 132 51 104 68 233 195 299 294 81 121 122 225 156 388 19 98 20 99 75
150 30 29 97 104 148 167 51 63 118 135 149 159 l56 44 48 -14 c26 -7 123 -41
215 -76 188 -70 281 -97 316 -90 33 6 45 -28 45 -128 -1 -101 -23 -186 -119
-457 -91 -259 -130 -406 -145 -559 -13 -130 -10 -143 59 -228 74 -91 188 -131
337 -117 147 13 256 72 329 178 l38 56 -21 57 c-72 191 -40 385 116 720 155
332 213 485 213 563 0 21 6 18 63 -33 87 -80 219 -154 434 -246 197 -85 313
-140 384 -184 67 -42 129 -95 129 -110 0 -42 -82 -99 -221 -154 -70 -28 -127
-74 -146 -120 -14 -34 -14 -36 8 -54 22 -18 35 -19 136 -13 67 4 114 2 118 -3
3 -6 1 -41 -5 -78 -6 -37 -15 -189 -21 -338 -5 -148 -13 -292 -19 -319 -14
-66 -50 -144 -88 -187 -36 -42 -127 -92 -194 -109 l-47 -12 27 -23 27 -23 -28
-26 c-20 -19 -27 -34 -27 -64 0 -38 1 -40 60 -66 151 -68 308 -71 595 -11 93
19 169 35 170 35 0 0 0 73 0 162 0 147 3 173 28 262 55 199 133 355 335 668
74 114 83 133 93 200 6 40 18 81 27 92 23 25 108 82 220 145 114 65 185 120
216 169 21 32 25 54 30 160 15 318 115 534 372 810 l77 83 -19 82 c-28 119
-26 301 4 381 49 134 93 185 471 548 l143 137 167 -168 c91 -93 203 -196 249
-230 184 -134 363 -186 554 -162 230 30 350 126 597 480 145 208 233 309 239
277 7 -33 -17 -227 -42 -336 -31 -138 -78 -261 -192 -507 -114 -244 -159 -375
-175 -509 -19 -156 -10 -161 104 -60 37 34 95 75 130 91 55 27 63 34 73 70 21
77 36 51 85 -146 49 -195 66 -235 107 -250 31 -12 38 -3 46 63 11 77 43 136
96 174 51 36 78 86 100 179 19 82 21 83 41 12 36 -129 108 -257 145 -257 11 0
12 16 7 79 -7 97 1 142 32 180 37 43 43 118 50 661 8 636 24 867 75 1068 l18
73 -31 46 c-54 79 -72 87 -205 94 -134 7 -184 24 -254 86 -48 44 -68 53 -187
94 -109 37 -159 46 -381 64 -102 9 -195 18 -207 21 -27 7 -28 4 34 194 68 206
148 347 282 492 l46 50 80 -13 c117 -19 408 -16 530 5 206 35 403 94 645 191
230 93 434 190 519 247 308 205 897 701 1484 1247 253 237 307 285 557 495
894 752 1352 1046 1809 1160 123 31 172 40 458 81 129 18 236 35 239 38 7 6
-165 46 -247 57 -88 11 -244 11 -349 -1z m-9043 -6440 c194 -94 251 -359 129
-597 -20 -37 -39 -73 -44 -81 -22 -32 -217 139 -308 269 -67 96 -184 335 -184
375 0 12 98 50 170 65 75 15 167 3 237 -31z"/>
</g>
</svg>
