<?xml version="1.0" standalone="no"?>
<!DOCTYPE svg PUBLIC "-//W3C//DTD SVG 20010904//EN"
 "http://www.w3.org/TR/2001/REC-SVG-20010904/DTD/svg10.dtd">
<svg version="1.0" xmlns="http://www.w3.org/2000/svg"
 width="1536.000000pt" height="534.000000pt" viewBox="0 0 1536.000000 534.000000"
 preserveAspectRatio="xMidYMid meet">
<metadata>
Created by potrace 1.16, written by Peter Selinger 2001-2019
</metadata>
<g transform="translate(0.000000,534.000000) scale(0.100000,-0.100000)"
fill="#000000" stroke="none">
<path d="M1085 5334 c-11 -3 -71 -26 -133 -50 -62 -25 -152 -56 -200 -69 -190
-54 -413 -137 -433 -161 -6 -8 -16 -14 -21 -14 -15 0 -163 -116 -192 -151 -81
-96 -132 -317 -91 -389 8 -14 14 -36 15 -51 0 -14 12 -48 26 -76 30 -62 67
-83 200 -114 215 -50 215 -50 317 -153 114 -116 165 -148 291 -188 55 -17 142
-52 195 -79 62 -31 129 -55 190 -68 51 -12 105 -29 120 -39 14 -10 42 -25 61
-32 53 -21 205 -110 400 -234 210 -134 325 -201 453 -261 88 -42 104 -54 197
-153 225 -237 353 -336 533 -412 283 -120 533 -189 837 -230 159 -21 572 -90
583 -97 6 -3 40 -38 76 -77 36 -39 133 -140 215 -226 154 -160 246 -265 246
-280 0 -5 -25 -36 -55 -68 -64 -70 -134 -109 -319 -177 -70 -27 -155 -66 -188
-87 -33 -21 -90 -54 -128 -73 -62 -31 -93 -60 -89 -82 4 -25 -15 -43 -154
-146 -153 -115 -222 -156 -287 -174 -47 -13 -171 -95 -206 -135 -59 -70 -101
-212 -70 -237 8 -7 27 -13 42 -14 27 -2 53 24 104 102 l16 23 39 -27 c34 -23
41 -34 50 -78 9 -49 12 -52 42 -55 28 -3 35 2 59 37 15 23 57 61 93 85 l66 45
10 -30 c13 -37 62 -99 79 -99 26 0 47 26 59 74 11 46 15 50 55 62 48 14 95 46
164 112 28 27 87 65 150 96 76 37 106 58 116 78 17 35 29 35 83 -2 52 -35 87
-38 123 -9 34 26 33 40 -4 61 -38 22 -38 45 0 102 60 89 328 210 494 223 70 6
72 7 119 57 80 85 108 158 88 232 -6 21 -32 75 -57 119 -91 156 -114 202 -149
307 -19 58 -38 133 -41 166 -6 53 -4 60 12 66 11 3 113 7 228 8 194 3 210 2
220 -16 46 -77 131 -199 166 -239 23 -26 72 -65 108 -86 37 -22 148 -98 247
-171 99 -73 243 -175 320 -229 182 -125 348 -284 365 -351 7 -25 24 -61 38
-80 31 -40 30 -29 6 -310 -19 -228 -29 -276 -59 -296 -13 -9 -33 -31 -44 -49
-11 -19 -32 -40 -48 -48 -37 -19 -332 -93 -404 -101 -31 -3 -86 -15 -121 -26
-53 -16 -74 -29 -116 -74 -55 -58 -98 -135 -89 -159 3 -8 18 -17 32 -21 26 -7
48 4 120 58 8 6 22 1 41 -12 21 -15 56 -24 124 -32 67 -8 104 -17 124 -32 23
-16 33 -18 52 -9 14 6 49 8 86 4 72 -6 193 15 303 53 39 14 133 41 210 61 237
60 251 75 241 237 -4 56 -14 125 -22 155 -23 80 -5 341 37 539 46 217 37 264
-79 393 -70 79 -120 158 -163 260 -65 151 -79 206 -79 304 0 107 -15 240 -35
310 -8 28 -32 77 -54 110 -44 65 -48 75 -28 75 6 0 79 25 162 55 116 43 162
55 206 55 54 0 63 4 155 66 54 36 138 104 187 149 113 107 168 137 325 180
231 63 381 82 879 110 342 20 799 68 1173 125 69 10 217 30 330 45 113 14 295
41 405 60 791 135 1407 183 2199 172 439 -6 505 -11 1066 -82 498 -64 492 -62
1072 -221 132 -36 138 -37 163 -20 15 10 25 25 23 34 -5 30 -498 263 -878 414
-656 262 -1162 434 -1575 537 -348 86 -819 156 -1220 181 -881 54 -1839 160
-2708 300 -602 97 -1132 176 -1417 209 -254 31 -1055 77 -1155 67 -33 -4 -289
-11 -570 -16 -548 -11 -793 -22 -1030 -45 -246 -25 -321 -41 -1107 -229 -553
-132 -549 -132 -721 -75 -150 50 -307 134 -617 331 -442 281 -602 359 -832
403 -83 16 -404 29 -443 19z"/>
</g>
</svg>
