<?xml version="1.0" standalone="no"?>
<!DOCTYPE svg PUBLIC "-//W3C//DTD SVG 20010904//EN"
 "http://www.w3.org/TR/2001/REC-SVG-20010904/DTD/svg10.dtd">
<svg version="1.0" xmlns="http://www.w3.org/2000/svg"
 width="4634.000000pt" height="2060.000000pt" viewBox="0 0 4634.000000 2060.000000"
 preserveAspectRatio="xMidYMid meet">
<metadata>
Created by potrace 1.16, written by Peter Selinger 2001-2019
</metadata>
<g transform="translate(0.000000,2060.000000) scale(0.100000,-0.100000)"
fill="#000000" stroke="none">
<path d="M1485 20585 c-307 -12 -311 -12 -440 -48 -101 -28 -165 -38 -289 -48
l-159 -12 -262 -128 -261 -128 -35 -118 -35 -118 14 -115 c7 -63 15 -116 16
-117 2 -2 80 6 175 16 l172 19 247 -24 247 -25 53 -52 53 -52 -6 -65 c-5 -61
-9 -68 -48 -103 -35 -31 -68 -46 -197 -87 -133 -42 -581 -227 -602 -248 -6 -7
155 -214 172 -220 4 -2 128 28 274 67 l267 69 208 -69 209 -70 203 -247 c112
-136 388 -470 613 -742 225 -272 413 -500 417 -506 5 -5 102 -343 218 -750
l209 -739 10 -368 10 -367 188 -353 c104 -193 208 -390 232 -437 l43 -85 98
-722 98 -721 62 -74 61 -74 2 -274 3 -275 59 198 c32 108 62 197 65 196 3 0
28 -27 55 -60 l48 -60 113 -657 113 -657 1 523 1 524 36 -44 c41 -49 48 -53
124 -68 l55 -10 59 -210 c33 -116 63 -207 66 -203 4 5 17 89 30 188 12 99 24
182 26 184 2 2 44 -4 94 -14 l90 -17 268 -529 c259 -514 268 -529 299 -535 38
-7 30 23 74 -294 17 -124 33 -232 36 -240 5 -13 24 86 84 444 l11 68 51 -7
c29 -3 52 -7 53 -8 1 -1 28 -294 59 -652 32 -357 61 -653 64 -657 4 -5 33 160
65 365 32 204 60 374 62 376 2 2 67 -126 145 -285 l141 -289 103 -405 103
-405 1 115 c1 319 -19 895 -40 1097 -12 118 -19 217 -15 220 3 3 29 0 57 -8
l51 -14 138 -455 c152 -506 242 -791 247 -786 2 1 -35 267 -82 591 -47 323
-84 589 -83 591 3 3 288 -72 293 -77 2 -2 18 -119 36 -259 17 -140 35 -258 38
-262 4 -5 18 57 31 137 13 80 27 145 30 145 3 0 44 -182 91 -405 49 -240 87
-398 91 -388 4 10 21 171 38 358 17 187 34 354 36 372 l6 31 121 -85 c67 -46
129 -92 137 -102 9 -10 42 -129 75 -264 33 -136 62 -247 66 -247 3 0 32 64 63
142 32 79 61 147 65 151 19 20 110 -140 331 -584 l240 -480 0 -267 c0 -147 9
-478 20 -737 l20 -469 -147 -148 -147 -147 -171 -283 -171 -283 -244 -215
-244 -215 -88 -188 c-85 -181 -92 -193 -198 -316 l-109 -129 -71 -182 -71
-183 26 -131 c15 -72 29 -139 31 -149 5 -15 183 -167 196 -167 3 0 -12 61 -33
135 l-39 135 49 117 49 118 83 3 82 3 84 76 c45 41 83 73 83 70 0 -4 -57 -124
-126 -268 l-125 -262 10 -140 c6 -77 12 -142 14 -144 2 -1 35 41 72 94 78 111
407 534 412 530 1 -2 -31 -87 -72 -190 l-75 -187 0 -101 0 -100 122 103 122
103 125 204 126 203 3 -276 2 -276 23 5 c12 3 51 11 86 19 34 8 65 17 68 19 2
3 20 106 39 228 20 123 38 231 41 239 3 8 23 -52 43 -133 21 -82 40 -150 43
-153 5 -5 85 11 93 19 2 2 13 74 24 160 l20 155 -35 169 c-19 92 -37 178 -40
190 -4 19 55 78 387 382 216 197 447 414 513 480 l120 121 26 -247 26 -248
-50 -285 -49 -285 9 -160 10 -160 -59 -175 c-32 -96 -58 -177 -58 -180 0 -4
29 -30 65 -60 36 -30 65 -57 65 -62 0 -4 -20 -41 -45 -80 l-45 -73 -152 -61
c-148 -60 -151 -62 -112 -67 21 -4 122 -9 224 -12 l185 -6 110 131 c102 122
114 142 164 261 30 70 55 127 56 126 0 -1 -3 -101 -8 -221 -9 -218 -9 -220 18
-350 15 -72 30 -135 32 -139 5 -7 126 180 158 243 7 14 32 130 56 257 24 128
46 229 50 225 3 -4 20 -106 38 -227 18 -121 35 -227 37 -235 3 -12 77 -71 132
-104 12 -7 13 36 7 300 -4 170 -5 307 -2 304 3 -3 35 -115 72 -250 37 -135 69
-248 72 -253 6 -11 143 66 143 80 0 7 -20 139 -45 294 -26 155 -45 283 -43
285 2 1 53 -85 113 -191 61 -107 113 -195 116 -195 3 0 14 24 23 53 l18 52
-79 327 -80 328 58 327 c43 241 72 451 110 792 l52 463 -32 139 c-18 77 -31
143 -29 148 2 5 86 -49 188 -120 123 -86 202 -134 235 -143 28 -8 826 -222
1775 -476 949 -254 1728 -465 1733 -469 4 -4 -2 -90 -13 -192 l-20 -184 82
-648 82 -647 -29 -452 -29 -452 -113 -173 -113 -173 0 -68 0 -68 -257 -127
-256 -128 -396 -65 c-218 -36 -397 -66 -398 -67 -1 -1 -11 -35 -22 -75 -21
-75 -43 -106 -231 -316 -28 -31 -88 -65 -297 -168 -144 -70 -267 -128 -273
-128 -6 0 -66 -13 -133 -30 -67 -16 -186 -36 -264 -45 l-143 -15 -139 -92
-140 -93 -46 -113 c-25 -61 -45 -117 -45 -122 0 -6 24 -7 63 -3 57 6 70 12
155 75 104 77 102 77 258 53 54 -8 104 -15 109 -15 6 0 37 -22 70 -49 l60 -48
150 24 c83 13 172 32 198 43 l48 19 -7 -22 c-4 -12 -26 -75 -49 -141 l-42
-118 30 -103 c32 -113 30 -111 97 -70 30 19 39 34 63 109 26 78 32 88 65 105
37 18 38 18 165 -7 l127 -26 143 140 c78 76 171 171 207 211 36 39 74 74 85
77 11 3 55 17 98 30 43 14 77 21 75 17 -2 -5 -41 -49 -88 -99 -81 -84 -89 -97
-140 -218 -29 -71 -70 -167 -90 -214 l-37 -85 49 -190 c46 -175 52 -193 86
-228 20 -20 39 -37 43 -37 4 0 21 24 37 53 28 49 30 60 36 197 l6 144 77 77
78 77 100 -18 c55 -11 111 -19 125 -19 19 -1 50 27 137 122 62 67 124 134 138
149 l26 28 -16 65 c-8 37 -15 73 -15 80 0 8 26 28 58 44 l58 30 32 118 c18 65
42 154 55 198 l22 80 105 52 105 53 246 0 246 0 104 46 c57 25 137 61 177 80
41 19 77 34 81 34 19 0 44 48 111 215 l73 180 -7 240 -6 240 141 380 141 380
289 290 288 290 239 328 238 328 34 305 34 306 36 -6 c19 -3 58 -6 85 -6 28 0
56 -4 62 -8 7 -5 67 -212 132 -460 l119 -452 59 -64 c32 -35 202 -219 378
-409 l319 -346 314 -147 c217 -102 458 -227 781 -405 l466 -257 261 -281 262
-281 77 -192 c42 -106 82 -198 88 -204 7 -7 36 -19 65 -29 l52 -17 0 -226 0
-227 -111 -283 -111 -282 46 -64 c25 -36 46 -68 46 -73 0 -4 -80 -61 -178
-125 l-177 -117 -440 -36 c-242 -19 -461 -39 -486 -44 -30 -5 -86 -3 -154 6
l-107 14 -191 -72 c-106 -39 -197 -75 -203 -80 -11 -9 -174 -282 -174 -292 0
-4 26 -7 59 -7 52 0 74 8 192 65 l134 64 108 -31 c113 -33 112 -32 92 -81 -7
-16 52 -17 1185 -15 l1192 3 32 78 31 78 35 -5 c19 -4 54 -9 76 -12 l41 -6
100 123 100 124 -18 140 c-10 77 -18 143 -19 146 0 3 -31 20 -70 39 -38 19
-70 36 -70 39 0 4 27 44 59 89 l60 84 -33 71 c-19 40 -55 115 -81 169 l-47 96
-9 149 -10 149 31 114 c17 63 85 251 151 417 l121 302 -108 208 c-59 114 -115
220 -125 234 -11 16 -115 80 -263 163 l-246 137 -193 252 c-106 139 -196 257
-200 263 -3 6 -33 173 -66 370 l-61 359 -130 360 c-109 302 -135 364 -160 388
-24 22 -44 64 -91 198 -34 94 -59 173 -56 176 3 2 47 8 99 13 51 5 881 133
1843 284 l1751 276 2307 0 2307 0 2002 -480 2003 -481 1630 -683 1630 -684
1390 -402 1390 -402 133 -135 c84 -87 132 -129 131 -117 0 11 -6 54 -13 97 -9
53 -9 77 -2 77 6 0 157 -43 336 -96 l325 -95 313 -34 c286 -32 340 -41 639
-109 180 -41 329 -74 330 -72 2 2 -39 23 -92 46 -52 24 -94 45 -92 46 1 2 77
-5 167 -15 l165 -18 305 -188 c358 -220 330 -204 304 -174 -134 155 -274 322
-272 324 2 1 73 -6 158 -16 133 -15 203 -31 500 -114 190 -53 521 -152 735
-219 215 -68 401 -127 415 -131 17 -5 -15 33 -103 122 l-128 129 283 -39 c263
-36 317 -47 758 -157 261 -65 476 -117 478 -115 2 2 -59 44 -135 93 -76 50
-176 116 -223 146 l-85 56 60 -5 c33 -3 213 -12 400 -21 333 -16 945 -14 1195
3 l95 6 -385 78 c-212 43 -387 78 -390 79 -3 1 101 34 230 74 233 72 239 74
600 256 201 101 358 185 350 187 -8 2 -102 -5 -207 -15 -106 -10 -193 -17
-193 -16 0 1 155 84 345 184 190 100 344 184 342 186 -2 2 -266 -46 -588 -106
-321 -60 -597 -112 -614 -115 -16 -3 109 49 280 117 l309 123 -270 3 -270 2
-435 -154 c-239 -85 -436 -153 -438 -151 -2 3 254 301 378 439 l26 29 -25 -13
c-14 -7 -178 -97 -365 -201 -187 -103 -352 -192 -365 -198 -25 -11 -822 -163
-827 -157 -1 1 67 33 152 71 86 37 154 70 152 71 -2 2 -175 -22 -385 -55
l-381 -59 -458 39 c-252 21 -465 39 -473 40 -8 0 116 45 275 99 160 54 284 99
277 99 -7 1 -269 -24 -583 -54 -315 -31 -578 -55 -587 -53 -8 2 87 52 211 112
125 60 226 111 224 112 -2 2 -181 -27 -398 -65 l-394 -69 -340 8 c-187 5 -385
10 -440 11 l-100 1 270 47 270 48 -135 6 c-74 4 -277 9 -450 11 l-315 5 -397
189 -398 190 118 6 c64 4 126 10 137 13 11 4 -106 32 -270 65 l-290 59 -540
256 c-297 140 -541 256 -543 258 -2 1 33 15 78 31 44 15 77 31 73 34 -5 4 -94
16 -200 28 l-192 20 -228 109 -228 109 -1682 1122 -1683 1122 -2347 1174
-2348 1173 -3345 1182 -3345 1182 -3360 760 -3360 761 -1730 179 c-1168 121
-1917 194 -2305 224 -316 25 -604 48 -640 52 l-65 7 215 36 c133 23 206 39
190 43 -14 3 -203 17 -420 32 -298 20 -513 41 -875 86 -263 33 -480 61 -481
62 -2 1 41 33 94 70 l96 67 -459 0 -460 0 110 110 c104 104 108 110 80 110
-17 0 -135 -9 -263 -19 -226 -18 -240 -18 -525 0 -160 10 -303 19 -317 20 -14
0 22 13 80 29 58 15 98 30 90 33 -8 3 -134 25 -280 48 -146 22 -269 44 -275
47 -5 3 -230 162 -500 353 l-490 347 -271 439 -271 438 -258 910 -257 910
-266 638 -265 638 -428 488 -429 489 -465 247 -465 247 -423 54 c-232 30 -426
53 -432 52 -5 -1 -149 -7 -320 -13z m8862 -16047 c-3 -8 -6 -5 -6 6 -1 11 2
17 5 13 3 -3 4 -12 1 -19z"/>
</g>
</svg>
